<svg width="200mm" height="200mm" viewBox="0 0 200 200" xmlns="http://www.w3.org/2000/svg" version="1.1" preserveAspectRatio="xMidYMid meet"><g id="svgGroup" stroke-linecap="round" fill-rule="evenodd" font-size="9pt" stroke="#000" stroke-width="0.25mm" fill="none" style="stroke:#000;stroke-width:0.25mm;fill:none"><path d="M 9 0 L 9 13.938 L 0 13.938 L 0 33.063 L 9 33.063 L 9 52.188 L 0 52.188 L 0 71.313 L 9 71.313 L 9 90.438 L 0 90.438 L 0 109.563 L 9 109.563 L 9 128.688 L 0 128.688 L 0 147.813 L 9 147.813 L 9 166.938 L 0 166.938 L 0 186.063 L 9 186.063 L 9 200 L 13.938 200 L 13.938 191 L 33.063 191 L 33.063 200 L 52.188 200 L 52.188 191 L 71.313 191 L 71.313 200 L 90.438 200 L 90.438 191 L 109.563 191 L 109.563 200 L 128.688 200 L 128.688 191 L 147.813 191 L 147.813 200 L 166.938 200 L 166.938 191 L 186.063 191 L 186.063 200 L 191 200 L 191 186.063 L 200 186.063 L 200 166.938 L 191 166.938 L 191 147.813 L 200 147.813 L 200 128.688 L 191 128.688 L 191 109.563 L 200 109.563 L 200 90.438 L 191 90.438 L 191 71.313 L 200 71.313 L 200 52.188 L 191 52.188 L 191 33.063 L 200 33.063 L 200 13.938 L 191 13.938 L 191 0 L 9 0 Z" id="right_outsideCutPath" stroke="#FF0000" stroke-width="0.1" style="stroke:#FF0000;stroke-width:0.1" vector-effect="non-scaling-stroke"/></g></svg>